<?xml version="1.0" encoding="UTF-8"?>
<svg id="Layer_1" data-name="Layer 1" xmlns="http://www.w3.org/2000/svg" viewBox="0 0 140.99 109.58">
  <defs>
    <style>
      .cls-1 {
        fill: #fff9f5;
        fill-rule: evenodd;
        stroke-width: 0px;
      }
    </style>
  </defs>
  <path class="cls-1" d="M99.22,109.58h41.77l-32.27-55.9-26.58,46.03h-25.99l33.88-58.68,7.3,12.64,5.69-9.86-12.99-22.51-39.76,68.86-15.31-26.52-11.19,19.38s.03.01.04.02l-15.32,26.53h11.34l15.13-26.2,9.43,16.34h-7.41l-5.69,9.86h56.54l20.88-36.17,15.19,26.31h-18.99l-5.69,9.86Z"/>
  <path class="cls-1" d="M23.81,62.49s-.03-.01-.04-.02l11.19-19.38,15.31,26.52L82.88,13.14C74.07,5,62.33,0,49.39,0,22.11,0,0,22.11,0,49.39c0,12.58,4.73,24.03,12.47,32.74l11.34-19.64Z"/>
</svg>